<svg width="151" height="31" viewBox="0 0 151 31" fill="none" xmlns="http://www.w3.org/2000/svg">
<path d="M0 0H10.464C13.44 0 14.928 1.408 14.928 4.224V25.824C14.928 28.64 13.44 30.048 10.464 30.048H0V0ZM10.56 25.248V4.8C10.56 4.224 10.464 3.856 10.272 3.696C10.08 3.504 9.696 3.408 9.12 3.408H4.368V26.64H9.12C9.696 26.64 10.08 26.56 10.272 26.4C10.464 26.208 10.56 25.824 10.56 25.248Z" fill="#333333"/>
<path d="M46.8424 0H50.8264V30.048H46.4584L40.1224 8.352V30.048H36.1384V0H40.6984L46.8424 21.072V0Z" fill="#333333"/>
<path d="M66.8659 30.048L65.6659 23.088H59.3299L58.2259 30.048H53.9059L59.2339 0H65.5219L71.2339 30.048H66.8659ZM59.8579 19.584H65.0899L62.3539 3.744L59.8579 19.584Z" fill="#333333"/>
<path d="M86.4386 0V3.504H81.3986V30.048H77.0786V3.504H72.0386V0H86.4386Z" fill="#333333"/>
<path d="M89.538 0H93.858V30.048H89.538V0Z" fill="#333333"/>
<path d="M103.504 0H108.832C111.808 0 113.296 1.408 113.296 4.224V25.824C113.296 28.64 111.808 30.048 108.832 30.048H103.504C100.496 30.048 98.9921 28.64 98.9921 25.824V4.224C98.9921 1.408 100.496 0 103.504 0ZM108.976 25.152V4.896C108.976 4.32 108.88 3.952 108.688 3.792C108.496 3.6 108.112 3.504 107.536 3.504H104.752C104.176 3.504 103.792 3.6 103.6 3.792C103.44 3.952 103.36 4.32 103.36 4.896V25.152C103.36 25.728 103.44 26.112 103.6 26.304C103.792 26.464 104.176 26.544 104.752 26.544H107.536C108.112 26.544 108.496 26.464 108.688 26.304C108.88 26.112 108.976 25.728 108.976 25.152Z" fill="#333333"/>
<path d="M128.78 0H132.764V30.048H128.396L122.06 8.352V30.048H118.076V0H122.636L128.78 21.072V0Z" fill="#333333"/>
<path d="M146.403 25.152V17.808C146.403 17.232 146.307 16.864 146.115 16.704C145.955 16.512 145.587 16.416 145.011 16.416H141.459C138.547 16.416 137.091 14.992 137.091 12.144V4.224C137.091 1.408 138.579 0 141.555 0H146.259C149.235 0 150.723 1.408 150.723 4.224V8.64H146.355V4.896C146.355 4.32 146.259 3.952 146.067 3.792C145.875 3.6 145.491 3.504 144.915 3.504H142.899C142.323 3.504 141.939 3.6 141.747 3.792C141.555 3.952 141.459 4.32 141.459 4.896V11.568C141.459 12.144 141.555 12.528 141.747 12.72C141.939 12.88 142.323 12.96 142.899 12.96H146.403C149.347 12.96 150.819 14.368 150.819 17.184V25.824C150.819 28.64 149.315 30.048 146.307 30.048H141.651C138.675 30.048 137.187 28.64 137.187 25.824V21.408H141.555V25.152C141.555 25.728 141.651 26.112 141.843 26.304C142.035 26.464 142.419 26.544 142.995 26.544H145.011C145.587 26.544 145.955 26.464 146.115 26.304C146.307 26.112 146.403 25.728 146.403 25.152Z" fill="#333333"/>
<rect x="19.408" y="0.0479736" width="13" height="4" fill="#333333"/>
<rect x="19.408" y="26.048" width="13" height="4" fill="#333333"/>
<rect x="20.408" y="13.048" width="11" height="4" fill="#333333"/>
</svg>
