<svg width="388" height="70" viewBox="0 0 388 70" fill="none" xmlns="http://www.w3.org/2000/svg">
<path d="M22.9517 0H0V11.5004H34.4322L22.9517 0Z" fill="#0A0E1B"/>
<path d="M22.9517 23.0008H0V34.5012H34.4322L22.9517 23.0008Z" fill="#1AB190"/>
<path d="M0 46.0016V57.502H34.4322L22.9517 46.0016H0Z" fill="#0A0E1B"/>
<path d="M57.407 46.0016V34.4966H34.4322L45.9357 46.0016H57.407Z" fill="#1AB190"/>
<path d="M80.3587 57.4974V23.0008H80.3679L68.8874 11.4958H34.446L45.9357 23.0008H68.8782V57.4974H34.4322L45.9357 69.0024H68.8782V69.0116L80.3587 57.5112L80.3679 57.4974H80.3587Z" fill="#0A0E1B"/>
<path d="M96.9656 57.2033V22.9593H122.107L126.094 26.8899L130.064 30.9231V49.9643L126.542 53.3297L122.107 57.2033H96.9656ZM104.922 49.9643H122.107C122.107 49.9643 122.107 48.6917 122.107 42.5614V38.4975C122.107 32.3672 122.107 30.1983 122.107 30.1983H104.922V49.9643Z" fill="#0A0E1B"/>
<path d="M138.13 46.8985V33.2683C138.13 26.3988 141.565 22.9641 148.434 22.9641H156.912C163.738 22.9641 167.151 26.3988 167.151 33.2683V42.9203H145.76V47.5506C145.76 49.5506 146.76 50.5506 148.76 50.5506H165.847V54.6592L162.391 57.2026H148.434C141.565 57.2026 138.13 53.7679 138.13 46.8985ZM145.76 36.9856H159.521V32.6161C159.521 30.6162 158.521 29.6162 156.521 29.6162H148.76C146.76 29.6162 145.76 30.6162 145.76 32.6161V36.9856Z" fill="#0A0E1B"/>
<path d="M173.425 57.2026V22.9586H182.099L199.366 44.2898V22.9586H207.323V57.2026H198.714L181.382 35.8714V57.2026H173.425Z" fill="#0A0E1B"/>
<path d="M226.59 57.2026C219.72 57.2026 216.285 53.8114 216.285 47.0289C216.285 40.2464 219.72 36.8552 226.59 36.8552H236.633V32.6161C236.633 30.6162 235.633 29.6162 233.633 29.6162H219.807V25.5075L223.198 22.9641H234.024C240.85 22.9641 244.263 26.3988 244.263 33.2683V57.2026H226.59ZM223.916 47.5506C223.916 49.5506 224.916 50.5506 226.916 50.5506H236.633V42.7898H226.916C224.916 42.7898 223.916 43.7681 223.916 45.7246V47.5506Z" fill="#0A0E1B"/>
<path d="M250.537 46.8985V22.9586H258.167V27.4454H269.841V34.0975H258.167V47.5506C258.167 49.5506 259.167 50.5506 261.167 50.5506H270.493V54.6592L267.037 57.2026H260.841C253.972 57.2026 250.537 53.7679 250.537 46.8985Z" fill="#0A0E1B"/>
<path d="M276.767 30.4734V22.7127H284.789V30.4734H276.767ZM276.963 57.2027V32.8231H284.593V57.2027H276.963Z" fill="#0A0E1B"/>
<path d="M291.062 46.8985V33.2683C291.062 26.3988 294.497 22.9641 301.367 22.9641H310.497C317.323 22.9641 320.736 26.3988 320.736 33.2683V46.8985C320.736 53.7679 317.323 57.2026 310.497 57.2026H301.367C294.497 57.2026 291.062 53.7679 291.062 46.8985ZM298.693 47.5506C298.693 49.5506 299.693 50.5506 301.693 50.5506H310.106C312.106 50.5506 313.106 49.5506 313.106 47.5506V32.6161C313.106 30.6162 312.106 29.6162 310.106 29.6162H301.693C299.693 29.6162 298.693 30.6162 298.693 32.6161V47.5506Z" fill="#0A0E1B"/>
<path d="M327.01 57.2026V22.9641H345.792C352.618 22.9641 356.031 26.3988 356.031 33.2683V57.2026H348.401V32.6161C348.401 30.6162 347.401 29.6162 345.401 29.6162H334.64V57.2026H327.01Z" fill="#0A0E1B"/>
<path d="M362.305 54.6592V50.5506H377.37C379.37 50.5506 380.37 49.4854 380.37 47.355C380.37 45.1376 379.544 43.8768 377.892 43.5724L370.587 42.3985C365.066 41.442 362.305 38.3117 362.305 33.0074C362.305 26.3119 365.74 22.9641 372.609 22.9641H382.978L386.435 25.5075V29.6162H372.935C370.892 29.6162 369.87 30.6814 369.87 32.8118C369.87 34.9422 370.739 36.1595 372.479 36.4639L379.783 37.6378C385.261 38.5508 388 41.7029 388 47.0941C388 53.8331 384.544 57.2026 377.631 57.2026H365.761L362.305 54.6592Z" fill="#0A0E1B"/>
<rect x="109.513" y="36.3" width="7.17012" height="7.17012" fill="#1AB190"/>
</svg>
