<svg width="375" height="52" viewBox="0 0 375 52" fill="none" xmlns="http://www.w3.org/2000/svg">
<path d="M17.5017 0H0V8.66551H26.2561L17.5017 0Z" fill="white"/>
<path d="M17.5017 17.331H0V25.9965H26.2561L17.5017 17.331Z" fill="#1AB190"/>
<path d="M0 34.662V43.3276H26.2561L17.5017 34.662H0Z" fill="white"/>
<path d="M43.7753 34.6621V25.9931H26.2561L35.028 34.6621H43.7753Z" fill="#1AB190"/>
<path d="M61.277 43.3241V17.331H61.284L52.5297 8.66205H26.2666L35.028 17.331H52.5227V43.3241H26.2561L35.028 51.9931H52.5227V52L61.277 43.3345L61.284 43.3241H61.277Z" fill="white"/>
<path d="M74.4164 47.9644V13.0164H100.383L104.501 17.0278L108.601 21.1439V40.5765L104.964 44.0111L100.383 47.9644H74.4164ZM82.6338 40.5765H100.383C100.383 40.5765 100.383 39.2778 100.383 33.0214V28.874C100.383 22.6177 100.383 20.4042 100.383 20.4042H82.6338V40.5765Z" fill="white"/>
<path d="M116.932 37.4477V23.5373C116.932 16.5266 120.479 13.0213 127.574 13.0213H136.33C143.38 13.0213 146.905 16.5266 146.905 23.5373V33.3877H124.812V38.1133C124.812 40.1543 125.845 41.1749 127.911 41.1749H145.558V45.368L141.988 47.9637H127.574C120.479 47.9637 116.932 44.4584 116.932 37.4477ZM124.812 27.331H139.024V22.8717C139.024 20.8307 137.992 19.8101 135.926 19.8101H127.911C125.845 19.8101 124.812 20.8307 124.812 22.8717V27.331Z" fill="white"/>
<path d="M153.385 47.9637V13.0157H162.343L180.177 34.7854V13.0157H188.394V47.9637H179.503L161.602 26.194V47.9637H153.385Z" fill="white"/>
<path d="M208.293 47.9637C201.199 47.9637 197.651 44.5027 197.651 37.5808C197.651 30.6589 201.199 27.1979 208.293 27.1979H218.666V22.8717C218.666 20.8307 217.633 19.8101 215.568 19.8101H201.288V15.617L204.791 13.0213H215.972C223.022 13.0213 226.547 16.5266 226.547 23.5373V47.9637H208.293ZM205.532 38.1133C205.532 40.1543 206.565 41.1749 208.63 41.1749H218.666V33.2546H208.63C206.565 33.2546 205.532 34.253 205.532 36.2497V38.1133Z" fill="white"/>
<path d="M233.027 37.4477V13.0157H240.907V17.5948H252.964V24.3836H240.907V38.1133C240.907 40.1544 241.94 41.1749 244.006 41.1749H253.637V45.368L250.068 47.9637H243.669C236.574 47.9637 233.027 44.4584 233.027 37.4477Z" fill="white"/>
<path d="M260.117 20.685V12.7648H268.402V20.685H260.117ZM260.319 47.9638V23.083H268.2V47.9638H260.319Z" fill="white"/>
<path d="M274.882 37.4477V23.5373C274.882 16.5266 278.429 13.0213 285.524 13.0213H294.954C302.004 13.0213 305.529 16.5266 305.529 23.5373V37.4477C305.529 44.4584 302.004 47.9637 294.954 47.9637H285.524C278.429 47.9637 274.882 44.4584 274.882 37.4477ZM282.762 38.1133C282.762 40.1543 283.795 41.1749 285.861 41.1749H294.55C296.615 41.1749 297.648 40.1543 297.648 38.1133V22.8717C297.648 20.8307 296.615 19.8101 294.55 19.8101H285.861C283.795 19.8101 282.762 20.8307 282.762 22.8717V38.1133Z" fill="white"/>
<path d="M312.009 47.9637V13.0213H331.407C338.457 13.0213 341.982 16.5266 341.982 23.5373V47.9637H334.101V22.8717C334.101 20.8307 333.069 19.8101 331.003 19.8101H319.889V47.9637H312.009Z" fill="white"/>
<path d="M348.462 45.368V41.1749H364.021C366.087 41.1749 367.119 40.0878 367.119 37.9136C367.119 35.6507 366.266 34.3639 364.56 34.0533L357.016 32.8553C351.313 31.8791 348.462 28.6844 348.462 23.2711C348.462 16.4379 352.009 13.0213 359.104 13.0213H369.814L373.383 15.617V19.8101H359.441C357.33 19.8101 356.275 20.8972 356.275 23.0714C356.275 25.2456 357.173 26.488 358.969 26.7986L366.513 27.9966C372.171 28.9284 375 32.1453 375 37.6474C375 44.5249 371.43 47.9637 364.29 47.9637H352.032L348.462 45.368Z" fill="white"/>
<rect x="87.3758" y="26.6313" width="7.40536" height="7.31752" fill="#1AB190"/>
</svg>
